{
	"asset":{
		"generator":"Khronos glTF Blender I/O v4.1.63",
		"version":"2.0"
	},
	"extensionsUsed":[
		"KHR_materials_clearcoat",
		"MPEG_anchor"
	],
	"extensionsRequired": [
		"MPEG_anchor"
    ],
	"extensions": {	
		"MPEG_anchor": {
			"anchors": [
				{                    
					"trackable": 0,
					"requiresAnchoring":true
				}
			],
			"trackables": [
				{
					"type": 0
				}
			]
		}
	},
	"scene":0,
	"scenes":[
		{
			"name":"Scene",
			"nodes":[
				4,
				5
			],
			"extensions": {
				"MPEG_anchor": {
				  "anchor": 0
				}
			}
		}
	],
	"nodes":[
		{
			"mesh":0,
			"name":"StaticMesh_minisofaefni_0"
		},
		{
			"mesh":1,
			"name":"StaticMesh_minisofafeet_0"
		},
		{
			"mesh":2,
			"name":"StaticMesh_minisofahnappar_0"
		},
		{
			"children":[
				0,
				1,
				2
			],
			"name":"sofa",
			"rotation":[
				-0.7071066498756409,
				0,
				0,
				0.70710688829422
			],
			"scale":[
				0.02500000037252903,
				0.02500000409781933,
				0.02500000409781933
			],
			"translation":[
				0,
				-0.24276773631572723,
				0
			]
		},
		{
			"children":[
				3
			],
			"name":"RootNode"
		},
		{
			"camera":0,
			"name":"Camera",
			"rotation":[
				-0.11320321261882782,
				0,
				0,
				0.993571937084198
			],
			"translation":[
				0,
				1.75,
				5
			]
		}
	],
	"cameras":[
		{
			"name":"Camera.001",
			"perspective":{
				"aspectRatio":1.7777777777777777,
				"yfov":0.39959648408210363,
				"zfar":1000,
				"znear":0.10000000149011612
			},
			"type":"perspective"
		}
	],
	"materials":[
		{
			"doubleSided":true,
			"name":"minisofaefni",
			"occlusionTexture":{
				"index":0
			},
			"pbrMetallicRoughness":{
				"baseColorTexture":{
					"index":1
				},
				"metallicFactor":0.5322027206420898,
				"metallicRoughnessTexture":{
					"index":0
				}
			}
		},
		{
			"doubleSided":true,
			"extensions":{
				"KHR_materials_clearcoat":{
					"clearcoatFactor":1,
					"clearcoatRoughnessFactor":0.6663491129875183,
					"clearcoatRoughnessTexture":{
						"index":2
					},
					"clearcoatNormalTexture":{
						"index":3
					}
				}
			},
			"name":"minisofafeet",
			"pbrMetallicRoughness":{
				"baseColorTexture":{
					"index":4
				},
				"metallicRoughnessTexture":{
					"index":5
				},
				"roughnessFactor":0
			}
		},
		{
			"doubleSided":true,
			"name":"minisofahnappar",
			"occlusionTexture":{
				"index":6
			},
			"pbrMetallicRoughness":{
				"baseColorTexture":{
					"index":7
				},
				"metallicFactor":0.5992758870124817,
				"metallicRoughnessTexture":{
					"index":6
				}
			}
		}
	],
	"meshes":[
		{
			"name":"StaticMesh_minisofaefni_0",
			"primitives":[
				{
					"attributes":{
						"POSITION":0,
						"NORMAL":1,
						"TEXCOORD_0":2,
						"TEXCOORD_1":3,
						"TEXCOORD_2":4
					},
					"indices":5,
					"material":0
				}
			]
		},
		{
			"name":"StaticMesh_minisofafeet_0",
			"primitives":[
				{
					"attributes":{
						"POSITION":6,
						"NORMAL":7,
						"TEXCOORD_0":8,
						"TEXCOORD_1":9,
						"TEXCOORD_2":10
					},
					"indices":11,
					"material":1
				}
			]
		},
		{
			"name":"StaticMesh_minisofahnappar_0",
			"primitives":[
				{
					"attributes":{
						"POSITION":12,
						"NORMAL":13,
						"TEXCOORD_0":14,
						"TEXCOORD_1":15,
						"TEXCOORD_2":16
					},
					"indices":17,
					"material":2
				}
			]
		}
	],
	"textures":[
		{
			"sampler":0,
			"source":0
		},
		{
			"sampler":0,
			"source":1
		},
		{
			"sampler":0,
			"source":2
		},
		{
			"sampler":0,
			"source":3
		},
		{
			"sampler":0,
			"source":4
		},
		{
			"sampler":0,
			"source":5
		},
		{
			"sampler":0,
			"source":6
		},
		{
			"sampler":0,
			"source":7
		}
	],
	"images":[
		{
			"mimeType":"image/png",
			"name":"minisofaefni_metallicRoughness",
			"uri":"textures/minisofaefni_metallicRoughness.png"
		},
		{
			"mimeType":"image/png",
			"name":"minisofaefni_baseColor",
			"uri":"textures/minisofaefni_baseColor.png"
		},
		{
			"mimeType":"image/png",
			"name":"minisofafeet_clearcoat_roughness",
			"uri":"textures/minisofafeet_clearcoat_roughness.png"
		},
		{
			"mimeType":"image/png",
			"name":"minisofafeet_clearcoat_normal",
			"uri":"textures/minisofafeet_clearcoat_normal.png"
		},
		{
			"mimeType":"image/png",
			"name":"minisofafeet_baseColor",
			"uri":"textures/minisofafeet_baseColor.png"
		},
		{
			"mimeType":"image/png",
			"name":"minisofafeet_metallicRoughness",
			"uri":"textures/minisofafeet_metallicRoughness.png"
		},
		{
			"mimeType":"image/png",
			"name":"minisofahnappar_metallicRoughness",
			"uri":"textures/minisofahnappar_metallicRoughness.png"
		},
		{
			"mimeType":"image/png",
			"name":"minisofahnappar_baseColor",
			"uri":"textures/minisofahnappar_baseColor.png"
		}
	],
	"accessors":[
		{
			"bufferView":0,
			"componentType":5126,
			"count":3922,
			"max":[
				38.30940628051758,
				25.461315155029297,
				55.88619613647461
			],
			"min":[
				-33.101009368896484,
				-12.518638610839844,
				21.854373931884766
			],
			"type":"VEC3"
		},
		{
			"bufferView":1,
			"componentType":5126,
			"count":3922,
			"type":"VEC3"
		},
		{
			"bufferView":2,
			"componentType":5126,
			"count":3922,
			"type":"VEC2"
		},
		{
			"bufferView":3,
			"componentType":5126,
			"count":3922,
			"type":"VEC2"
		},
		{
			"bufferView":4,
			"componentType":5126,
			"count":3922,
			"type":"VEC2"
		},
		{
			"bufferView":5,
			"componentType":5123,
			"count":19488,
			"type":"SCALAR"
		},
		{
			"bufferView":6,
			"componentType":5126,
			"count":5472,
			"max":[
				33.89653015136719,
				26.74481964111328,
				50.92089080810547
			],
			"min":[
				-29.007116317749023,
				-10.16438102722168,
				9.514533996582031
			],
			"type":"VEC3"
		},
		{
			"bufferView":7,
			"componentType":5126,
			"count":5472,
			"type":"VEC3"
		},
		{
			"bufferView":8,
			"componentType":5126,
			"count":5472,
			"type":"VEC2"
		},
		{
			"bufferView":9,
			"componentType":5126,
			"count":5472,
			"type":"VEC2"
		},
		{
			"bufferView":10,
			"componentType":5126,
			"count":5472,
			"type":"VEC2"
		},
		{
			"bufferView":11,
			"componentType":5123,
			"count":25512,
			"type":"SCALAR"
		},
		{
			"bufferView":12,
			"componentType":5126,
			"count":7331,
			"max":[
				25.627635955810547,
				19.154645919799805,
				48.94608688354492
			],
			"min":[
				-20.623523712158203,
				-4.859442710876465,
				27.638429641723633
			],
			"type":"VEC3"
		},
		{
			"bufferView":13,
			"componentType":5126,
			"count":7331,
			"type":"VEC3"
		},
		{
			"bufferView":14,
			"componentType":5126,
			"count":7331,
			"type":"VEC2"
		},
		{
			"bufferView":15,
			"componentType":5126,
			"count":7331,
			"type":"VEC2"
		},
		{
			"bufferView":16,
			"componentType":5126,
			"count":7331,
			"type":"VEC2"
		},
		{
			"bufferView":17,
			"componentType":5123,
			"count":36480,
			"type":"SCALAR"
		}
	],
	"bufferViews":[
		{
			"buffer":0,
			"byteLength":47064,
			"byteOffset":0,
			"target":34962
		},
		{
			"buffer":0,
			"byteLength":47064,
			"byteOffset":47064,
			"target":34962
		},
		{
			"buffer":0,
			"byteLength":31376,
			"byteOffset":94128,
			"target":34962
		},
		{
			"buffer":0,
			"byteLength":31376,
			"byteOffset":125504,
			"target":34962
		},
		{
			"buffer":0,
			"byteLength":31376,
			"byteOffset":156880,
			"target":34962
		},
		{
			"buffer":0,
			"byteLength":38976,
			"byteOffset":188256,
			"target":34963
		},
		{
			"buffer":0,
			"byteLength":65664,
			"byteOffset":227232,
			"target":34962
		},
		{
			"buffer":0,
			"byteLength":65664,
			"byteOffset":292896,
			"target":34962
		},
		{
			"buffer":0,
			"byteLength":43776,
			"byteOffset":358560,
			"target":34962
		},
		{
			"buffer":0,
			"byteLength":43776,
			"byteOffset":402336,
			"target":34962
		},
		{
			"buffer":0,
			"byteLength":43776,
			"byteOffset":446112,
			"target":34962
		},
		{
			"buffer":0,
			"byteLength":51024,
			"byteOffset":489888,
			"target":34963
		},
		{
			"buffer":0,
			"byteLength":87972,
			"byteOffset":540912,
			"target":34962
		},
		{
			"buffer":0,
			"byteLength":87972,
			"byteOffset":628884,
			"target":34962
		},
		{
			"buffer":0,
			"byteLength":58648,
			"byteOffset":716856,
			"target":34962
		},
		{
			"buffer":0,
			"byteLength":58648,
			"byteOffset":775504,
			"target":34962
		},
		{
			"buffer":0,
			"byteLength":58648,
			"byteOffset":834152,
			"target":34962
		},
		{
			"buffer":0,
			"byteLength":72960,
			"byteOffset":892800,
			"target":34963
		}
	],
	"samplers":[
		{
			"magFilter":9729,
			"minFilter":9987
		}
	],
	"buffers":[
		{
			"byteLength":965760,
			"uri":"scene.bin"
		}
	]
}
