{
	"asset":{
		"generator":"Khronos glTF Blender I/O v4.1.63",
		"version":"2.0"
	},
	"extensionsUsed":[
		"MPEG_media",
		"MPEG_buffer_circular",
		"MPEG_accessor_timed",
		"MPEG_texture_video",
		"MPEG_audio_spatial",
		"MPEG_anchor"
	],
	"extensionsRequired":[
		"MPEG_media",
		"MPEG_buffer_circular",
		"MPEG_accessor_timed",
		"MPEG_texture_video",
		"MPEG_audio_spatial",
		"MPEG_anchor"
	],
	"extensions":{
		"MPEG_media":{
			"media":[
				{
					"alternatives":[
						{
							"mimeType":"video/mp4",
							"uri":"bbb_1080p30_avc_3000bkps_0x31637661.mp4"
						}
					],
					"autoplay":true,
					"loop":true
				},
				{
					"alternatives":[
						{
							"mimeType":"audio/mp3",
							"uri":"bbb_aac_4800_mono_fltp_0x6134706d.mp4"
						}
					],
					"autoplay":true,
					"loop":true
				}
			]
		},
		"MPEG_anchor":{
			"trackables":[
				{
					"type":"TRACKABLE_PLANE",
					"geometricConstraint":1
				}
			],
			"anchors":[
				{
					"trackable":0,
					"requiresAnchoring":false
				}
			]
		}
	},
	"scene":0,
	"scenes":[
		{
			"name":"Scene",
			"nodes":[
				2
			]
		}
	],
	"nodes":[
		{
			"mesh":0,
			"name":"Plane",
			"rotation":[
				0.7071068286895752,
				0,
				0,
				0.7071068286895752
			],
			"scale":[
				1.600000023841858,
				1,
				0.8999999761581421
			]
		},
		{
			"extensions":{
				"MPEG_audio_spatial":{
					"sources":[
						{
							"id":0,
							"type":"Object",
							"targetSampleRate":48000,
							"accessors":[
								5
							],
							"attenuation":"inverseDistance",
							"attenuationParameters":[
								340282346638528859811704183484516925440,
								1
							],
							"referenceDistance":1
						}
					]
				}
			},
			"name":"Speaker",
			"rotation":[
				-0.7071068286895752,
				0,
				0,
				0.7071068286895752
			]
		},
		{
			"children":[
				0,
				1
			],
			"extensions":{
				"MPEG_anchor":{
					"anchor":0
				}
			},
			"name":"Empty"
		}
	],
	"materials":[
		{
			"doubleSided":true,
			"name":"Material.001",
			"pbrMetallicRoughness":{
				"baseColorTexture":{
					"index":0
				},
				"metallicFactor":0
			}
		}
	],
	"meshes":[
		{
			"name":"Plane",
			"primitives":[
				{
					"attributes":{
						"POSITION":0,
						"NORMAL":1,
						"TEXCOORD_0":2
					},
					"indices":3,
					"material":0
				}
			]
		}
	],
	"textures":[
		{
			"extensions":{
				"MPEG_texture_video":{
					"accessor":4,
					"width":1920,
					"height":1080,
					"format":"RGB"
				}
			},
			"sampler":0,
			"source":0
		}
	],
	"images":[
		{
			"mimeType":"image/png",
			"name":"bbb_1080p30_avc_3000bkps_0x31637661",
			"uri":"bbb_1080p30_avc_3000bkps_0x31637661.png"
		}
	],
	"accessors":[
		{
			"bufferView":0,
			"componentType":5126,
			"count":4,
			"max":[
				1,
				0,
				1
			],
			"min":[
				-1,
				0,
				-1
			],
			"type":"VEC3"
		},
		{
			"bufferView":1,
			"componentType":5126,
			"count":4,
			"type":"VEC3"
		},
		{
			"bufferView":2,
			"componentType":5126,
			"count":4,
			"type":"VEC2"
		},
		{
			"bufferView":3,
			"componentType":5123,
			"count":6,
			"type":"SCALAR"
		},
		{
			"bufferView":4,
			"byteOffset":0,
			"componentType":5121,
			"count":2073600,
			"extensions":{
				"MPEG_accessor_timed":{
					"suggestedUpdateRate":24
				}
			},
			"name":"MPEG_texture_video.accessor",
			"normalized":false,
			"type":"VEC3"
		},
		{
			"bufferView":5,
			"byteOffset":0,
			"componentType":5126,
			"count":1024,
			"extensions":{
				"MPEG_accessor_timed":{
					"suggestedUpdateRate":46.875,
					"bufferView":6
				}
			},
			"name":"MPEG_texture_video.accessor",
			"normalized":false,
			"type":"SCALAR"
		}
	],
	"bufferViews":[
		{
			"buffer":2,
			"byteLength":48,
			"byteOffset":0,
			"target":34962
		},
		{
			"buffer":2,
			"byteLength":48,
			"byteOffset":48,
			"target":34962
		},
		{
			"buffer":2,
			"byteLength":32,
			"byteOffset":96,
			"target":34962
		},
		{
			"buffer":2,
			"byteLength":12,
			"byteOffset":128,
			"target":34963
		},
		{
			"buffer":0,
			"byteLength":8294400,
			"byteOffset":0,
			"name":"MPEG_media.frame"
		},
		{
			"buffer":1,
			"byteLength":8192,
			"byteOffset":32,
			"name":"MPEG_media.frame"
		},
		{
			"buffer":1,
			"byteLength":32,
			"name":"MPEG_accessor_timed.header"
		}
	],
	"samplers":[
		{
			"magFilter":9729,
			"minFilter":9987
		}
	],
	"buffers":[
		{
			"byteLength":8294400,
			"extensions":{
				"MPEG_buffer_circular":{
					"media":0
				}
			},
			"name":"MPEG_media.frame.buffer"
		},
		{
			"byteLength":8224,
			"extensions":{
				"MPEG_buffer_circular":{
					"media":1
				}
			},
			"name":"MPEG_media.frame.buffer"
		},
		{
			"byteLength":140,
			"uri":"video_plane_ar.bin"
		}
	]
}
