{
    "asset" : {
        "generator" : "Khronos glTF Blender I/O v1.8.19",
        "version" : "2.0"
    },
    "scene" : 0,
    "scenes" : [
        {
            "name" : "Scene",
            "nodes" : [
                0,
                1,
                2,
                3,
                4
            ],
            "extensions": {
            "MPEG_scene_interactivity": {
                    "triggers": [
                        {                    
                           "type": 3,
                           "cameraNode":4,
                           "nodes":[0]
                        },
                        {                    
                           "type": 0,
                           "nodes":[0,1]
                        },
                                        {                    
                           "type": 0,
                           "nodes":[0,2]
                        },
                        {                    
                           "type": 1,
                           "distanceLowerLimit":10,
                           "distanceUpperLimit":20,
                           "nodes":[0]
                         }
                     ],
                    "actions": [
                       {                    
                          "type": 6, 
                          "material":3,
                          "nodes":[2]
                       },
                       {                    
                          "type": 4,
                          "media":0,
                          "delay": 3.0,
                          "mediaControl": 0
                       },
                       {                    
                          "type": 4,
                          "media":0,
                          "mediaControl": 1
                       }
                   ],
                   "behaviors": [
                       {
                          "triggers":[1],
                          "actions":[0,1,2],
                          "triggersCombinationControl":"#0",
                          "triggersActivationControl": 1,
                          "actionsControl":1
                        }
                   ]
            }
        }
        }
    ],
    "nodes" : [
        {
            "mesh" : 0,
            "name" : "Sphere_Yellow",
            "translation" : [
                -3,
                0,
                0
            ]
        },
        {
            "mesh" : 1,
            "name" : "Sphere_Red",
            "rotation" : [
                -0.17710798978805542,
                0,
                0,
                0.9841914176940918
            ],
            "translation" : [
                -3,
                0,
                -6.703279495239258
            ]
        },
        {
            "mesh" : 2,
            "name" : "Sphere_Gray",
            "translation" : [
                3,
                0,
                0
            ],
            "extensions": {
                "MPEG_audio_spatial": {
                    "sources": [{
                        "attenuation": "linearDistance",
                        "attenuationParameters": [
                            90.0,
                            1.0
                        ],
                    "id": 0,
                    "accessors":[22],
                    "type": "object",
                    "targetSampleRate": 48000
                    }]
                }
            }
        },
        {
            "mesh" : 3,
            "name" : "Cube",
            "translation" : [
                -0.028940200805664062,
                -1.4228076934814453,
                -2.389873504638672
            ]
        },
        {
            "camera" : 0,
            "name" : "Camera_Orientation",
            "translation" : [
                0,
                20,
                22.49
            ],
            "rotation" : [
                -0.32,
                0.15,
                -0.03,
                0.94
            ]
        }
    ],
    "cameras" : [
        {
            "name" : "Camera",
            "perspective" : {
                "aspectRatio" : 1.7777777777777777,
                "yfov" : 0.7175413670112324,
                "zfar" : 100,
                "znear" : 0.10000000149011612
            },
            "type" : "perspective"
        }
    ],
    "animations" : [
        {
            "channels" : [
                {
                    "sampler" : 0,
                    "target" : {
                        "node" : 1,
                        "path" : "translation"
                    }
                },
                {
                    "sampler" : 1,
                    "target" : {
                        "node" : 1,
                        "path" : "rotation"
                    }
                },
                {
                    "sampler" : 2,
                    "target" : {
                        "node" : 1,
                        "path" : "scale"
                    }
                }
            ],
            "name" : "Sphere_RedAction",
            "samplers" : [
                {
                    "input" : 14,
                    "interpolation" : "LINEAR",
                    "output" : 15
                },
                {
                    "input" : 14,
                    "interpolation" : "LINEAR",
                    "output" : 16
                },
                {
                    "input" : 17,
                    "interpolation" : "LINEAR",
                    "output" : 18
                }
            ]
        },
        {
            "channels" : [
                {
                    "sampler" : 0,
                    "target" : {
                        "node" : 2,
                        "path" : "translation"
                    }
                },
                {
                    "sampler" : 1,
                    "target" : {
                        "node" : 2,
                        "path" : "rotation"
                    }
                },
                {
                    "sampler" : 2,
                    "target" : {
                        "node" : 2,
                        "path" : "scale"
                    }
                }
            ],
            "name" : "Sphere_GrayAction",
            "samplers" : [
                {
                    "input" : 14,
                    "interpolation" : "LINEAR",
                    "output" : 19
                },
                {
                    "input" : 14,
                    "interpolation" : "LINEAR",
                    "output" : 20
                },
                {
                    "input" : 17,
                    "interpolation" : "LINEAR",
                    "output" : 21
                }
            ]
        }
    ],
    "materials" : [
        {
            "doubleSided" : true,
            "name" : "Yellow_mat",
            "pbrMetallicRoughness" : {
                "baseColorFactor" : [
                    0.8000000715255737,
                    0.3926287591457367,
                    0,
                    1
                ],
                "metallicFactor" : 0,
                "roughnessFactor" : 0.5
            }
        },
        {
            "doubleSided" : true,
            "name" : "Red_mat",
            "pbrMetallicRoughness" : {
                "baseColorFactor" : [
                    0.8000000715255737,
                    0.003907732665538788,
                    0,
                    1
                ],
                "metallicFactor" : 0,
                "roughnessFactor" : 0.5
            }
        },
        {
            "doubleSided" : true,
            "name" : "Gray_mat",
            "pbrMetallicRoughness" : {
                "baseColorFactor" : [
                    0.4479789137840271,
                    0.4479789137840271,
                    0.4479789137840271,
                    1
                ],
                "metallicFactor" : 0,
                "roughnessFactor" : 0.5
            }
        },
        {
            "doubleSided" : true,
            "name" : "Blue_mat",
            "pbrMetallicRoughness" : {
                "baseColorFactor" : [
                    0.1479789137840271,
                    0.1479789137840271,
                    0.9926287591457367,
                    1
                ],
                "metallicFactor" : 0,
                "roughnessFactor" : 0.5
            }
        }
    ],
    "meshes" : [
        {
            "name" : "Sphere_Yellow",
            "primitives" : [
                {
                    "attributes" : {
                        "POSITION" : 0,
                        "NORMAL" : 1,
                        "TEXCOORD_0" : 2
                    },
                    "indices" : 3,
                    "material" : 0
                }
            ]
        },
        {
            "name" : "Sphere.001",
            "primitives" : [
                {
                    "attributes" : {
                        "POSITION" : 4,
                        "NORMAL" : 5,
                        "TEXCOORD_0" : 6
                    },
                    "indices" : 3,
                    "material" : 1
                }
            ]
        },
        {
            "name" : "Sphere.002",
            "primitives" : [
                {
                    "attributes" : {
                        "POSITION" : 7,
                        "NORMAL" : 8,
                        "TEXCOORD_0" : 9
                    },
                    "indices" : 3,
                    "material" : 2
                }
            ]
        },
        {
            "name" : "Cube",
            "primitives" : [
                {
                    "attributes" : {
                        "POSITION" : 10,
                        "NORMAL" : 11,
                        "TEXCOORD_0" : 12
                    },
                    "indices" : 13,
                    "material" : 2
                }
            ]
        }
    ],
    "accessors" : [
        {
            "bufferView" : 0,
            "componentType" : 5126,
            "count" : 1984,
            "max" : [
                1.5052361488342285,
                1.5052366256713867,
                1.5052356719970703
            ],
            "min" : [
                -1.505235195159912,
                -1.5052366256713867,
                -1.505234718322754
            ],
            "type" : "VEC3"
        },
        {
            "bufferView" : 1,
            "componentType" : 5126,
            "count" : 1984,
            "type" : "VEC3"
        },
        {
            "bufferView" : 2,
            "componentType" : 5126,
            "count" : 1984,
            "type" : "VEC2"
        },
        {
            "bufferView" : 3,
            "componentType" : 5123,
            "count" : 2880,
            "type" : "SCALAR"
        },
        {
            "bufferView" : 4,
            "componentType" : 5126,
            "count" : 1984,
            "max" : [
                1.5052361488342285,
                1.5052366256713867,
                1.5052356719970703
            ],
            "min" : [
                -1.505235195159912,
                -1.5052366256713867,
                -1.505234718322754
            ],
            "type" : "VEC3"
        },
        {
            "bufferView" : 5,
            "componentType" : 5126,
            "count" : 1984,
            "type" : "VEC3"
        },
        {
            "bufferView" : 6,
            "componentType" : 5126,
            "count" : 1984,
            "type" : "VEC2"
        },
        {
            "bufferView" : 7,
            "componentType" : 5126,
            "count" : 1984,
            "max" : [
                1.5052361488342285,
                1.5052366256713867,
                1.5052356719970703
            ],
            "min" : [
                -1.505235195159912,
                -1.5052366256713867,
                -1.505234718322754
            ],
            "type" : "VEC3"
        },
        {
            "bufferView" : 8,
            "componentType" : 5126,
            "count" : 1984,
            "type" : "VEC3"
        },
        {
            "bufferView" : 9,
            "componentType" : 5126,
            "count" : 1984,
            "type" : "VEC2"
        },
        {
            "bufferView" : 10,
            "componentType" : 5126,
            "count" : 24,
            "max" : [
                5.942234039306641,
                0.024617671966552734,
                5.942234039306641
            ],
            "min" : [
                -5.942234039306641,
                -0.024617671966552734,
                -5.942234039306641
            ],
            "type" : "VEC3"
        },
        {
            "bufferView" : 11,
            "componentType" : 5126,
            "count" : 24,
            "type" : "VEC3"
        },
        {
            "bufferView" : 12,
            "componentType" : 5126,
            "count" : 24,
            "type" : "VEC2"
        },
        {
            "bufferView" : 13,
            "componentType" : 5123,
            "count" : 36,
            "type" : "SCALAR"
        },
        {
            "bufferView" : 14,
            "componentType" : 5126,
            "count" : 181,
            "max" : [
                6
            ],
            "min" : [
                0
            ],
            "type" : "SCALAR"
        },
        {
            "bufferView" : 15,
            "componentType" : 5126,
            "count" : 181,
            "type" : "VEC3"
        },
        {
            "bufferView" : 16,
            "componentType" : 5126,
            "count" : 181,
            "type" : "VEC4"
        },
        {
            "bufferView" : 17,
            "componentType" : 5126,
            "count" : 2,
            "max" : [
                6
            ],
            "min" : [
                0
            ],
            "type" : "SCALAR"
        },
        {
            "bufferView" : 18,
            "componentType" : 5126,
            "count" : 2,
            "type" : "VEC3"
        },
        {
            "bufferView" : 19,
            "componentType" : 5126,
            "count" : 181,
            "type" : "VEC3"
        },
        {
            "bufferView" : 20,
            "componentType" : 5126,
            "count" : 181,
            "type" : "VEC4"
        },
        {
            "bufferView" : 21,
            "componentType" : 5126,
            "count" : 2,
            "type" : "VEC3"
        },
        {
            "bufferView": 22,
            "componentType": 5126,
            "count": 1152,
            "extensions": {
                "MPEG_accessor_timed": {
                    "bufferView": 23,
                    "immutable": true,
                    "suggestedUpdateRate": 41.66667
                }
            },
            "type": "SCALAR"
        }
    ],
    "bufferViews" : [
        {
            "buffer" : 0,
            "byteLength" : 23808,
            "byteOffset" : 0
        },
        {
            "buffer" : 0,
            "byteLength" : 23808,
            "byteOffset" : 23808
        },
        {
            "buffer" : 0,
            "byteLength" : 15872,
            "byteOffset" : 47616
        },
        {
            "buffer" : 0,
            "byteLength" : 5760,
            "byteOffset" : 63488
        },
        {
            "buffer" : 0,
            "byteLength" : 23808,
            "byteOffset" : 69248
        },
        {
            "buffer" : 0,
            "byteLength" : 23808,
            "byteOffset" : 93056
        },
        {
            "buffer" : 0,
            "byteLength" : 15872,
            "byteOffset" : 116864
        },
        {
            "buffer" : 0,
            "byteLength" : 23808,
            "byteOffset" : 132736
        },
        {
            "buffer" : 0,
            "byteLength" : 23808,
            "byteOffset" : 156544
        },
        {
            "buffer" : 0,
            "byteLength" : 15872,
            "byteOffset" : 180352
        },
        {
            "buffer" : 0,
            "byteLength" : 288,
            "byteOffset" : 196224
        },
        {
            "buffer" : 0,
            "byteLength" : 288,
            "byteOffset" : 196512
        },
        {
            "buffer" : 0,
            "byteLength" : 192,
            "byteOffset" : 196800
        },
        {
            "buffer" : 0,
            "byteLength" : 72,
            "byteOffset" : 196992
        },
        {
            "buffer" : 0,
            "byteLength" : 724,
            "byteOffset" : 197064
        },
        {
            "buffer" : 0,
            "byteLength" : 2172,
            "byteOffset" : 197788
        },
        {
            "buffer" : 0,
            "byteLength" : 2896,
            "byteOffset" : 199960
        },
        {
            "buffer" : 0,
            "byteLength" : 8,
            "byteOffset" : 202856
        },
        {
            "buffer" : 0,
            "byteLength" : 24,
            "byteOffset" : 202864
        },
        {
            "buffer" : 0,
            "byteLength" : 2172,
            "byteOffset" : 202888
        },
        {
            "buffer" : 0,
            "byteLength" : 2896,
            "byteOffset" : 205060
        },
        {
            "buffer" : 0,
            "byteLength" : 24,
            "byteOffset" : 207956
        },
        {
            "buffer": 1,
            "byteLength": 4608,
            "byteOffset": 32
        },
        {
            "buffer": 1,
            "byteLength": 32,
            "byteOffset": 0
        }
    ],
    "buffers" : [
        {
            "byteLength" : 207980,
            "uri" : "data:application/octet-stream;base64,"
        },
        {
            "byteLength": 4640,
            "extensions": {
                "MPEG_buffer_circular": {
                    "media": 0,
                    "count": 3,
                    "tracks": [
                        0
                    ]
                }
            }
        }
    ],
    "extensions": {
    "MPEG_media": {
        "media": [
            {
                "alternatives": [
                    {
                        "mimeType": "audio/mp3",
                        "uri": "Sound01.mp3"
                    }
                ],
                "startTimeOffset": 0,
                "endTimeOffset": 0,
                "autoplay": false,
                "autoplayGroup": false,
                "loop": true,
                "controls": false,
                "name": "media_0"
            }
        ]
    }
    },
    "extensionsUsed": [
        "MPEG_media", 
        "MPEG_accessor_timed", 
        "MPEG_buffer_circular", 
        "MPEG_texture_video", 
        "KHR_materials_unlit",
        "MPEG_scene_interactivity",
        "MPEG_audio_spatial"
    ]
}
