{
	"asset":{
		"generator":"Khronos glTF Blender I/O v4.1.63",
		"version":"2.0"
	},
	"extensionsUsed":[
		"MPEG_anchor"
	],
	"extensionsRequired":[
		"MPEG_anchor"
	],
	"extensions":{
		"MPEG_anchor":{
			"trackables":[
				{
					"type":4,
					"markerNode":5
				}
			],
			"anchors":[
				{
					"trackable":0,
					"requiresAnchoring":false
				}
			]
		}
	},
	"scene":0,
	"scenes":[
		{
			"name":"Scene",
			"nodes":[
				4
			]
		}
	],
	"nodes":[
		{
			"mesh":0,
			"name":"Object_2"
		},
		{
			"mesh":1,
			"name":"Object_3"
		},
		{
			"mesh":2,
			"name":"Object_4"
		},
		{
			"children":[
				0,
				1,
				2
			],
			"name":"17198_6506_IV_Oskar_FIN.obj.cleaner.materialmerger.gles",
			"rotation":[
				-0.8746196627616882,
				0,
				0.4848097562789917,
				3.823083716270048e-08
			],
			"scale":[
				0.0062500000931322575,
				0.0062500000931322575,
				0.0062500000931322575
			]
		},
		{
			"children":[
				3
			],
			"extensions":{
				"MPEG_anchor":{
					"anchor":0
				}
			},
			"name":"Sketchfab_model"
		},
		{
			"mesh":3,
			"name":"marker.jpg"
		}
	],
	"materials":[
		{
			"doubleSided":true,
			"name":"defaultMat",
			"normalTexture":{
				"index":0
			},
			"occlusionTexture":{
				"index":1
			},
			"pbrMetallicRoughness":{
				"baseColorTexture":{
					"index":2
				},
				"metallicRoughnessTexture":{
					"index":1
				}
			}
		},
		{
			"doubleSided":true,
			"name":"XRMarkerMaterial.001",
			"pbrMetallicRoughness":{
				"baseColorTexture":{
					"index":3
				},
				"metallicFactor":0,
				"roughnessFactor":0.5
			}
		}
	],
	"meshes":[
		{
			"name":"Object_0",
			"primitives":[
				{
					"attributes":{
						"POSITION":0,
						"NORMAL":1,
						"TEXCOORD_0":2
					},
					"indices":3,
					"material":0
				}
			]
		},
		{
			"name":"Object_1",
			"primitives":[
				{
					"attributes":{
						"POSITION":4,
						"NORMAL":5,
						"TEXCOORD_0":6
					},
					"indices":7,
					"material":0
				}
			]
		},
		{
			"name":"Object_2",
			"primitives":[
				{
					"attributes":{
						"POSITION":8,
						"NORMAL":9,
						"TEXCOORD_0":10
					},
					"indices":11,
					"material":0
				}
			]
		},
		{
			"name":"Plane",
			"primitives":[
				{
					"attributes":{
						"POSITION":12,
						"NORMAL":13,
						"TEXCOORD_0":14
					},
					"indices":15,
					"material":1
				}
			]
		}
	],
	"textures":[
		{
			"sampler":0,
			"source":0
		},
		{
			"sampler":0,
			"source":1
		},
		{
			"sampler":0,
			"source":2
		},
		{
			"sampler":0,
			"source":3
		}
	],
	"images":[
		{
			"mimeType":"image/png",
			"name":"defaultMat_normal",
			"uri":"textures/defaultMat_normal.png"
		},
		{
			"mimeType":"image/png",
			"name":"defaultMat_metallicRoughness",
			"uri":"textures/defaultMat_metallicRoughness.png"
		},
		{
			"mimeType":"image/png",
			"name":"defaultMat_baseColor",
			"uri":"textures/defaultMat_baseColor.png"
		},
		{
			"mimeType":"image/jpeg",
			"name":"marker",
			"uri":"textures/marker.jpg"
		}
	],
	"accessors":[
		{
			"bufferView":0,
			"componentType":5126,
			"count":82880,
			"max":[
				7.3004608154296875,
				-0.6366440057754517,
				8.589343070983887
			],
			"min":[
				-13.293269157409668,
				-28.67287254333496,
				-11.752070426940918
			],
			"type":"VEC3"
		},
		{
			"bufferView":1,
			"componentType":5126,
			"count":82880,
			"type":"VEC3"
		},
		{
			"bufferView":2,
			"componentType":5126,
			"count":82880,
			"type":"VEC2"
		},
		{
			"bufferView":3,
			"componentType":5125,
			"count":300408,
			"type":"SCALAR"
		},
		{
			"bufferView":4,
			"componentType":5126,
			"count":66626,
			"max":[
				5.504471778869629,
				-1.891469955444336,
				6.72834587097168
			],
			"min":[
				-13.094380378723145,
				-53.15050506591797,
				-11.377470970153809
			],
			"type":"VEC3"
		},
		{
			"bufferView":5,
			"componentType":5126,
			"count":66626,
			"type":"VEC3"
		},
		{
			"bufferView":6,
			"componentType":5126,
			"count":66626,
			"type":"VEC2"
		},
		{
			"bufferView":7,
			"componentType":5125,
			"count":319530,
			"type":"SCALAR"
		},
		{
			"bufferView":8,
			"componentType":5126,
			"count":59614,
			"max":[
				6.191963195800781,
				-3.5197699069976807,
				5.506552219390869
			],
			"min":[
				-10.23276138305664,
				-14.574630737304688,
				-8.612428665161133
			],
			"type":"VEC3"
		},
		{
			"bufferView":9,
			"componentType":5126,
			"count":59614,
			"type":"VEC3"
		},
		{
			"bufferView":10,
			"componentType":5126,
			"count":59614,
			"type":"VEC2"
		},
		{
			"bufferView":11,
			"componentType":5123,
			"count":185676,
			"type":"SCALAR"
		},
		{
			"bufferView":12,
			"componentType":5126,
			"count":4,
			"max":[
				0.5,
				0,
				0.5
			],
			"min":[
				-0.5,
				0,
				-0.5
			],
			"type":"VEC3"
		},
		{
			"bufferView":13,
			"componentType":5126,
			"count":4,
			"type":"VEC3"
		},
		{
			"bufferView":14,
			"componentType":5126,
			"count":4,
			"type":"VEC2"
		},
		{
			"bufferView":15,
			"componentType":5123,
			"count":6,
			"type":"SCALAR"
		}
	],
	"bufferViews":[
		{
			"buffer":0,
			"byteLength":994560,
			"byteOffset":0,
			"target":34962
		},
		{
			"buffer":0,
			"byteLength":994560,
			"byteOffset":994560,
			"target":34962
		},
		{
			"buffer":0,
			"byteLength":663040,
			"byteOffset":1989120,
			"target":34962
		},
		{
			"buffer":0,
			"byteLength":1201632,
			"byteOffset":2652160,
			"target":34963
		},
		{
			"buffer":0,
			"byteLength":799512,
			"byteOffset":3853792,
			"target":34962
		},
		{
			"buffer":0,
			"byteLength":799512,
			"byteOffset":4653304,
			"target":34962
		},
		{
			"buffer":0,
			"byteLength":533008,
			"byteOffset":5452816,
			"target":34962
		},
		{
			"buffer":0,
			"byteLength":1278120,
			"byteOffset":5985824,
			"target":34963
		},
		{
			"buffer":0,
			"byteLength":715368,
			"byteOffset":7263944,
			"target":34962
		},
		{
			"buffer":0,
			"byteLength":715368,
			"byteOffset":7979312,
			"target":34962
		},
		{
			"buffer":0,
			"byteLength":476912,
			"byteOffset":8694680,
			"target":34962
		},
		{
			"buffer":0,
			"byteLength":371352,
			"byteOffset":9171592,
			"target":34963
		},
		{
			"buffer":0,
			"byteLength":48,
			"byteOffset":9542944,
			"target":34962
		},
		{
			"buffer":0,
			"byteLength":48,
			"byteOffset":9542992,
			"target":34962
		},
		{
			"buffer":0,
			"byteLength":32,
			"byteOffset":9543040,
			"target":34962
		},
		{
			"buffer":0,
			"byteLength":12,
			"byteOffset":9543072,
			"target":34963
		}
	],
	"samplers":[
		{
			"magFilter":9729,
			"minFilter":9987
		}
	],
	"buffers":[
		{
			"byteLength":9543084,
			"uri":"awards_marker2D.bin"
		}
	]
}
