{
	"asset":{
		"generator":"Khronos glTF Blender I/O v3.6.27",
		"version":"2.0"
	},
	"extensionsUsed":[
		"MPEG_media",
		"MPEG_buffer_circular",
		"MPEG_accessor_timed",
		"MPEG_audio_spatial",
		"MPEG_texture_video"
	],
	"extensionsRequired":[
		"MPEG_media",
		"MPEG_buffer_circular",
		"MPEG_accessor_timed",
		"MPEG_audio_spatial",
		"MPEG_texture_video"
	],
	"extensions":{
		"MPEG_media":{
			"media":[
				{
					"alternatives":[
						{
							"mimeType":"video/mp4",
							"uri":"bbb_360p_48k.mp4",
							"tracks": [
								{
                                    "track": "#track_ID=1",
                                    "codecs": "0x31637661;"
                                },
                                {
                                    "track": "#track_ID=2",
                                    "codecs": "audio/mp4a"
                                }
							]
						}
					],
					"autoplay":true,
					"loop":true
				}
			]
		}
	},
	"scene":0,
	"scenes":[
		{
			"name":"Scene",
			"nodes":[
				16
			]
		}
	],
	"nodes":[
		{
			"name":"Node_15",
			"translation":[
				0,
				0,
				3.0517578125e-05
			]
		},
		{
			"mesh":0,
			"name":"tv_detale_polysk_tv_detale_polysk_0",
			"translation":[
				0,
				1.3530974683817476e-05,
				3.3341217203997076e-05
			]
		},
		{
			"children":[
				1
			],
			"name":"tv_detale_polysk",
			"translation":[
				0.73260498046875,
				-206.11924743652344,
				1.5986356735229492
			]
		},
		{
			"mesh":1,
			"name":"tv_drewno_obudowa_tv_drewno_obudowa_0",
			"translation":[
				0,
				1.3530974683817476e-05,
				3.3341217203997076e-05
			]
		},
		{
			"children":[
				3
			],
			"name":"tv_drewno_obudowa",
			"translation":[
				0.73260498046875,
				-206.11924743652344,
				1.5986356735229492
			]
		},
		{
			"mesh":2,
			"name":"tv_front_tv_front_0",
			"translation":[
				0,
				1.3530974683817476e-05,
				3.3341217203997076e-05
			]
		},
		{
			"children":[
				5
			],
			"name":"tv_front",
			"translation":[
				0.73260498046875,
				-206.11924743652344,
				1.5986356735229492
			]
		},
		{
			"extensions":{
				"MPEG_audio_spatial":{
					"sources":[
						{
							"id":0,
							"type":"Object",
							"targetSampleRate":48000,
							"accessors":[
								12
							],
							"attenuation":"linearDistance",
							"attenuationParameters":[
								340282346638528859811704183484516925440,
								1
							],
							"referenceDistance":1
						}
					]
				}
			},
			"name":"Speaker",
			"rotation":[
				0.7473599910736084,
				-0.013719923794269562,
				-0.6636959314346313,
				0.027797162532806396
			],
			"scale":[
				-99.99999237060547,
				-99.9999771118164,
				-99.99996948242188
			],
			"translation":[
				-11.458282470703125,
				206.11932373046875,
				328.0030822753906
			]
		},
		{
			"children":[
				7
			],
			"mesh":3,
			"name":"tv_glass_ekran_tv_glass_ekran_0",
			"translation":[
				0,
				1.3530974683817476e-05,
				3.3341217203997076e-05
			]
		},
		{
			"children":[
				8
			],
			"name":"tv_glass_ekran",
			"translation":[
				0.73260498046875,
				-206.11924743652344,
				1.5986356735229492
			]
		},
		{
			"mesh":4,
			"name":"tv_matt_tv_belweder_0",
			"translation":[
				0,
				1.3530974683817476e-05,
				3.3341217203997076e-05
			]
		},
		{
			"children":[
				10
			],
			"name":"tv_matt",
			"translation":[
				0.73260498046875,
				-206.11924743652344,
				1.5986356735229492
			]
		},
		{
			"mesh":5,
			"name":"tv_plastic_detale_tv_plastic_detale_0",
			"translation":[
				0,
				1.3530974683817476e-05,
				3.3341217203997076e-05
			]
		},
		{
			"children":[
				12
			],
			"name":"tv_plastic_detale",
			"translation":[
				0.73260498046875,
				-206.11924743652344,
				1.5986356735229492
			]
		},
		{
			"children":[
				0,
				2,
				4,
				6,
				9,
				11,
				13
			],
			"name":"RootNode",
			"translation":[
				0,
				0,
				3.0517578125e-05
			]
		},
		{
			"children":[
				14
			],
			"name":"f14df878962f49d1b0c6aa7ff4a07db4.fbx",
			"rotation":[
				0,
				0,
				-1,
				8.40967929024028e-25
			],
			"scale":[
				-1,
				-1,
				-1
			],
			"translation":[
				0,
				0,
				-3.0517578125e-05
			]
		},
		{
			"children":[
				15
			],
			"name":"Sketchfab_model",
			"rotation":[
				0,
				-0.7071068286895752,
				0.7071068286895752,
				7.850462159063936e-17
			],
			"translation":[
				-174.03306579589844,
				-468.7281799316406,
				0
			]
		}
	],
	"materials":[
		{
			"doubleSided":true,
			"name":"tv_detale_polysk",
			"pbrMetallicRoughness":{
				"baseColorTexture":{
					"index":0
				},
				"metallicFactor":0,
				"roughnessFactor":0.20000000298023224
			}
		},
		{
			"doubleSided":true,
			"name":"tv_drewno_obudowa",
			"pbrMetallicRoughness":{
				"baseColorTexture":{
					"index":1
				},
				"metallicFactor":0,
				"roughnessFactor":0.20000000298023224
			}
		},
		{
			"doubleSided":true,
			"name":"tv_front",
			"pbrMetallicRoughness":{
				"baseColorTexture":{
					"index":2
				},
				"metallicFactor":0,
				"roughnessFactor":0.20000000298023224
			}
		},
		{
			"doubleSided":true,
			"name":"tv_glass_ekran",
			"pbrMetallicRoughness":{
				"baseColorTexture":{
					"index":3
				},
				"metallicFactor":0,
				"roughnessFactor":0
			}
		},
		{
			"doubleSided":true,
			"name":"tv_belweder",
			"pbrMetallicRoughness":{
				"baseColorTexture":{
					"index":4
				},
				"metallicFactor":0,
				"roughnessFactor":0.6399999856948853
			}
		},
		{
			"doubleSided":true,
			"name":"tv_plastic_detale",
			"pbrMetallicRoughness":{
				"baseColorTexture":{
					"index":5
				},
				"metallicFactor":0,
				"roughnessFactor":0.20000000298023224
			}
		}
	],
	"meshes":[
		{
			"name":"tv_detale_polysk_tv_detale_polysk_0",
			"primitives":[
				{
					"attributes":{
						"POSITION":0,
						"NORMAL":1,
						"TEXCOORD_0":2
					},
					"indices":3,
					"material":0
				}
			]
		},
		{
			"name":"tv_drewno_obudowa_tv_drewno_obudowa_0",
			"primitives":[
				{
					"attributes":{
						"POSITION":4,
						"NORMAL":5,
						"TEXCOORD_0":6
					},
					"indices":7,
					"material":1
				}
			]
		},
		{
			"name":"tv_front_tv_front_0",
			"primitives":[
				{
					"attributes":{
						"POSITION":8,
						"NORMAL":9,
						"TEXCOORD_0":10
					},
					"indices":11,
					"material":2
				}
			]
		},
		{
			"name":"tv_glass_ekran_tv_glass_ekran_0",
			"primitives":[
				{
					"attributes":{
						"POSITION":13,
						"NORMAL":14,
						"TEXCOORD_0":15
					},
					"indices":16,
					"material":3
				}
			]
		},
		{
			"name":"tv_matt_tv_belweder_0",
			"primitives":[
				{
					"attributes":{
						"POSITION":18,
						"NORMAL":19,
						"TEXCOORD_0":20,
						"TEXCOORD_1":21,
						"TEXCOORD_2":22
					},
					"indices":23,
					"material":4
				}
			]
		},
		{
			"name":"tv_plastic_detale_tv_plastic_detale_0",
			"primitives":[
				{
					"attributes":{
						"POSITION":24,
						"NORMAL":25,
						"TEXCOORD_0":26
					},
					"indices":27,
					"material":5
				}
			]
		}
	],
	"textures":[
		{
			"sampler":0,
			"source":0
		},
		{
			"sampler":0,
			"source":0
		},
		{
			"sampler":0,
			"source":0
		},
		{
			"extensions":{
				"MPEG_texture_video":{
					"accessor":17,
					"width":640,
					"height":360,
					"format":"RGB"
				}
			},
			"sampler":0,
			"source":1
		},
		{
			"sampler":0,
			"source":0
		},
		{
			"sampler":0,
			"source":0
		}
	],
	"images":[
		{
			"mimeType":"image/jpeg",
			"name":"tv_belweder_baseColor",
			"uri":"tv_belweder_baseColor.jpg"
		},
		{
			"mimeType":"image/jpeg",
			"name":"bbb_360p_48k",
			"uri":"bbb_360p_48k.jpg"
		}
	],
	"accessors":[
		{
			"bufferView":0,
			"componentType":5126,
			"count":11790,
			"max":[
				235.218994140625,
				410.11798095703125,
				137.22799682617188
			],
			"min":[
				-409.4510192871094,
				17.22599983215332,
				5.249000072479248
			],
			"type":"VEC3"
		},
		{
			"bufferView":1,
			"componentType":5126,
			"count":11790,
			"type":"VEC3"
		},
		{
			"bufferView":2,
			"componentType":5126,
			"count":11790,
			"type":"VEC2"
		},
		{
			"bufferView":3,
			"componentType":5123,
			"count":60300,
			"type":"SCALAR"
		},
		{
			"bufferView":4,
			"componentType":5126,
			"count":5202,
			"max":[
				289.8840026855469,
				452.9219970703125,
				513.010009765625
			],
			"min":[
				-285.156982421875,
				-5.365000247955322,
				22.184999465942383
			],
			"type":"VEC3"
		},
		{
			"bufferView":5,
			"componentType":5126,
			"count":5202,
			"type":"VEC3"
		},
		{
			"bufferView":6,
			"componentType":5126,
			"count":5202,
			"type":"VEC2"
		},
		{
			"bufferView":7,
			"componentType":5123,
			"count":30204,
			"type":"SCALAR"
		},
		{
			"bufferView":8,
			"componentType":5126,
			"count":7056,
			"max":[
				279.20477294921875,
				109.41700744628906,
				500.33697509765625
			],
			"min":[
				-270.8165283203125,
				10.179000854492188,
				31.798500061035156
			],
			"type":"VEC3"
		},
		{
			"bufferView":9,
			"componentType":5126,
			"count":7056,
			"type":"VEC3"
		},
		{
			"bufferView":10,
			"componentType":5126,
			"count":7056,
			"type":"VEC2"
		},
		{
			"bufferView":11,
			"componentType":5123,
			"count":40584,
			"type":"SCALAR"
		},
		{
			"bufferView":12,
			"byteOffset":0,
			"componentType":5126,
			"count":1024,
			"extensions":{
				"MPEG_accessor_timed":{
					"suggestedUpdateRate":46.875,
					"bufferView":13
				}
			},
			"name":"MPEG_texture_video.accessor",
			"normalized":false,
			"type":"SCALAR"
		},
		{
			"bufferView":14,
			"componentType":5126,
			"count":1145,
			"max":[
				200.8249969482422,
				80.12700653076172,
				451.9939880371094
			],
			"min":[
				-191.5159912109375,
				30.913999557495117,
				157.64401245117188
			],
			"type":"VEC3"
		},
		{
			"bufferView":15,
			"componentType":5126,
			"count":1145,
			"type":"VEC3"
		},
		{
			"bufferView":16,
			"componentType":5126,
			"count":1145,
			"type":"VEC2"
		},
		{
			"bufferView":17,
			"componentType":5123,
			"count":6522,
			"type":"SCALAR"
		},
		{
			"bufferView":18,
			"byteOffset":0,
			"componentType":5121,
			"count":230400,
			"extensions":{
				"MPEG_accessor_timed":{
					"suggestedUpdateRate":24
				}
			},
			"name":"MPEG_texture_video.accessor",
			"normalized":false,
			"type":"VEC3"
		},
		{
			"bufferView":19,
			"componentType":5126,
			"count":32210,
			"max":[
				276.2539978027344,
				572.343994140625,
				497.7850036621094
			],
			"min":[
				-458.40301513671875,
				-2.7260000705718994,
				-0.46399998664855957
			],
			"type":"VEC3"
		},
		{
			"bufferView":20,
			"componentType":5126,
			"count":32210,
			"type":"VEC3"
		},
		{
			"bufferView":21,
			"componentType":5126,
			"count":32210,
			"type":"VEC2"
		},
		{
			"bufferView":22,
			"componentType":5126,
			"count":32210,
			"type":"VEC2"
		},
		{
			"bufferView":23,
			"componentType":5126,
			"count":32210,
			"type":"VEC2"
		},
		{
			"bufferView":24,
			"componentType":5123,
			"count":159840,
			"type":"SCALAR"
		},
		{
			"bufferView":25,
			"componentType":5126,
			"count":38895,
			"max":[
				280.5459899902344,
				372.1570129394531,
				456.0830078125
			],
			"min":[
				-276.80499267578125,
				-7.974999904632568,
				54.75200271606445
			],
			"type":"VEC3"
		},
		{
			"bufferView":26,
			"componentType":5126,
			"count":38895,
			"type":"VEC3"
		},
		{
			"bufferView":27,
			"componentType":5126,
			"count":38895,
			"type":"VEC2"
		},
		{
			"bufferView":28,
			"componentType":5123,
			"count":210960,
			"type":"SCALAR"
		}
	],
	"bufferViews":[
		{
			"buffer":2,
			"byteLength":141480,
			"byteOffset":0,
			"target":34962
		},
		{
			"buffer":2,
			"byteLength":141480,
			"byteOffset":141480,
			"target":34962
		},
		{
			"buffer":2,
			"byteLength":94320,
			"byteOffset":282960,
			"target":34962
		},
		{
			"buffer":2,
			"byteLength":120600,
			"byteOffset":377280,
			"target":34963
		},
		{
			"buffer":2,
			"byteLength":62424,
			"byteOffset":497880,
			"target":34962
		},
		{
			"buffer":2,
			"byteLength":62424,
			"byteOffset":560304,
			"target":34962
		},
		{
			"buffer":2,
			"byteLength":41616,
			"byteOffset":622728,
			"target":34962
		},
		{
			"buffer":2,
			"byteLength":60408,
			"byteOffset":664344,
			"target":34963
		},
		{
			"buffer":2,
			"byteLength":84672,
			"byteOffset":724752,
			"target":34962
		},
		{
			"buffer":2,
			"byteLength":84672,
			"byteOffset":809424,
			"target":34962
		},
		{
			"buffer":2,
			"byteLength":56448,
			"byteOffset":894096,
			"target":34962
		},
		{
			"buffer":2,
			"byteLength":81168,
			"byteOffset":950544,
			"target":34963
		},
		{
			"buffer":0,
			"byteLength":8192,
			"byteOffset":32,
			"name":"MPEG_media.frame"
		},
		{
			"buffer":0,
			"byteLength":32,
			"name":"MPEG_accessor_timed.header"
		},
		{
			"buffer":2,
			"byteLength":13740,
			"byteOffset":1031712,
			"target":34962
		},
		{
			"buffer":2,
			"byteLength":13740,
			"byteOffset":1045452,
			"target":34962
		},
		{
			"buffer":2,
			"byteLength":9160,
			"byteOffset":1059192,
			"target":34962
		},
		{
			"buffer":2,
			"byteLength":13044,
			"byteOffset":1068352,
			"target":34963
		},
		{
			"buffer":1,
			"byteLength":921600,
			"byteOffset":0,
			"name":"MPEG_media.frame"
		},
		{
			"buffer":2,
			"byteLength":386520,
			"byteOffset":1081396,
			"target":34962
		},
		{
			"buffer":2,
			"byteLength":386520,
			"byteOffset":1467916,
			"target":34962
		},
		{
			"buffer":2,
			"byteLength":257680,
			"byteOffset":1854436,
			"target":34962
		},
		{
			"buffer":2,
			"byteLength":257680,
			"byteOffset":2112116,
			"target":34962
		},
		{
			"buffer":2,
			"byteLength":257680,
			"byteOffset":2369796,
			"target":34962
		},
		{
			"buffer":2,
			"byteLength":319680,
			"byteOffset":2627476,
			"target":34963
		},
		{
			"buffer":2,
			"byteLength":466740,
			"byteOffset":2947156,
			"target":34962
		},
		{
			"buffer":2,
			"byteLength":466740,
			"byteOffset":3413896,
			"target":34962
		},
		{
			"buffer":2,
			"byteLength":311160,
			"byteOffset":3880636,
			"target":34962
		},
		{
			"buffer":2,
			"byteLength":421920,
			"byteOffset":4191796,
			"target":34963
		}
	],
	"samplers":[
		{
			"magFilter":9729,
			"minFilter":9987
		}
	],
	"buffers":[
		{
			"byteLength":8224,
			"extensions":{
				"MPEG_buffer_circular":{
					"media":0,
					"tracks": [ 1 ]
				}
			},
			"name":"MPEG_media.frame.buffer"
		},
		{
			"byteLength":921600,
			"extensions":{
				"MPEG_buffer_circular":{
					"media":0,
					"tracks": [ 0 ]
				}
			},
			"name":"MPEG_media.frame.buffer"
		},
		{
			"byteLength":4613716,
			"uri":"scene.bin"
		}
	]
}
